<svg xmlns="http://www.w3.org/2000/svg" viewBox="0 0 325.32 324.98"><defs><style>.cls-1{fill:#fed766;}</style></defs><g id="Layer_2" data-name="Layer 2"><g id="Layer_1-2" data-name="Layer 1"><g id="Layer_2-2" data-name="Layer 2"><g id="Layer_1-2-2" data-name="Layer 1-2"><path d="M151.5.37a36.74,36.74,0,0,0,8.64-.28c4.55-.38,9,.69,13.62.46A3.69,3.69,0,0,0,176.35,0c.21.58.72.4,1.16.43a158.79,158.79,0,0,1,27.21,4.75,156.29,156.29,0,0,1,34.33,13.71,161.6,161.6,0,0,1,73.88,81.48,158.71,158.71,0,0,1,11.78,75.32,159.06,159.06,0,0,1-18.95,64A161.76,161.76,0,0,1,228,311.51a152.23,152.23,0,0,1-41.38,11.84,84.17,84.17,0,0,0-10.49,1.53c-5.24-.95-10.54.49-15.78,0a73.36,73.36,0,0,0-11.29,0c-.17-.61-.72-.41-1.09-.43A162.18,162.18,0,0,1,35.63,263.56,160.23,160.23,0,0,1,.23,170.07,155.16,155.16,0,0,1,7.15,115,161.53,161.53,0,0,1,78.78,23.19,155.2,155.2,0,0,1,128.66,3.46,123.87,123.87,0,0,1,151.5.37Z"/><path class="cls-1" d="M184.53,236.17a12.82,12.82,0,0,1-9.76-4.87Q151.88,208.73,129.06,186c-4.12-4.09-8.38-8.1-12.38-12.3a19.45,19.45,0,0,1-6-9.56,12.19,12.19,0,0,1,4.17-11.52q21.2-20.84,42.43-41.71c6.62-6.51,13.45-12.79,19.9-19.47,4.29-4.4,13.94-3.77,18.37,2.88,3.83,5.76,1.39,12.79-2.65,16.85-10.36,10.43-20.93,20.62-31.42,30.91-6.13,6-12.24,12.09-18.46,18-1.7,1.65-1.56,2.88,0,4.41q17.28,17.28,34.73,34.42c5,5,10.2,9.85,15.07,15a13,13,0,0,1-3.75,21.23A20.38,20.38,0,0,1,184.53,236.17Z"/></g></g></g></g></svg>