<svg xmlns="http://www.w3.org/2000/svg" viewBox="0 0 339 338.65"><defs><style>.cls-1{fill:#f4a261;}</style></defs><g id="Layer_2" data-name="Layer 2"><g id="Layer_1-2" data-name="Layer 1"><g id="Layer_2-2" data-name="Layer 2"><g id="Layer_1-2-2" data-name="Layer 1-2"><path d="M157.87.39a37.65,37.65,0,0,0,9-.3c4.75-.39,9.43.72,14.2.48a3.84,3.84,0,0,0,2.7-.57c.21.6.75.42,1.2.45a165.22,165.22,0,0,1,28.36,5,162.46,162.46,0,0,1,35.78,14.29,168.36,168.36,0,0,1,77,84.9,165.33,165.33,0,0,1,12.28,78.49,165.71,165.71,0,0,1-19.75,66.69,168.66,168.66,0,0,1-81,74.85A158.86,158.86,0,0,1,194.46,337a91.66,91.66,0,0,0-10.93,1.59c-5.46-1-11,.51-16.44,0a77.08,77.08,0,0,0-11.77,0c-.18-.63-.75-.42-1.14-.45a169,169,0,0,1-117-63.44A167,167,0,0,1,.24,177.23a161.88,161.88,0,0,1,7.21-57.39A168.37,168.37,0,0,1,82.09,24.16a162,162,0,0,1,52-20.56A130,130,0,0,1,157.87.39Z"/><path class="cls-1" d="M235.6,246.58a13.69,13.69,0,0,1-10.5-4.89c-17.62-17.68-35.33-35.26-52.85-53-2.19-2.19-3.18-2.1-5.29,0-17.64,17.83-35.44,35.54-53.15,53.3-3.72,3.72-7.92,5.8-13.17,4a12,12,0,0,1-4.32-20.31c11.7-12,23.56-23.62,35.35-35.42,6-6,12-12.21,18.16-18,2.4-2.25,2.61-3.39,0-6q-27-26.6-53.54-53.48C89.8,106.22,91.09,97,98.9,93a11.72,11.72,0,0,1,14.37,3q18.47,18.46,36.8,36.92c5.7,5.67,11.49,11.13,17,17.13,2.07,2.22,3,1.8,5,0q26.76-27,53.72-53.84a12,12,0,0,1,21,9,14.08,14.08,0,0,1-4.92,8.62c-17.56,17.5-35.09,35.11-52.74,52.58-2.1,2.1-2.49,3.21,0,5.55q27,26.63,53.58,53.52c7.11,7.17,5,17.43-4.14,20.55A16.14,16.14,0,0,1,235.6,246.58Z"/></g></g></g></g></svg>