<svg xmlns="http://www.w3.org/2000/svg" viewBox="0 0 285.26 285.51"><defs><style>.cls-1{fill:#fff;}</style></defs><g id="Layer_2" data-name="Layer 2"><g id="Layer_1-2" data-name="Layer 1"><path class="cls-1" d="M2.57,262.11C2,256.22,5.45,251.7,9.38,247.42a31.77,31.77,0,0,1,4.69-4.52c2.5-1.78,2.6-4,2.11-6.64a35.39,35.39,0,0,1,5.63-26.45c3-4.54,7.08-8.24,10.93-12.08q36.1-36.06,72.17-72.15Q130.22,100.28,155.58,75c1.88-1.86,2.38-3.17,1-5.7-4.29-8-2.12-17.27,5-23.59,3.07-2.72,6.12-5.53,10-6.86a17.06,17.06,0,0,1,14.65,1.85c1.81,1.07,2.83.72,4.18-.64q13.38-13.56,26.91-27c3.75-3.7,7.63-7.47,12.84-8.91,11-3.05,21.45-2.45,30.69,5.43,5.28,4.49,9.76,9.72,14.65,14.56,3.53,3.49,5.29,8.2,6.38,13,2.76,12.23-1.53,22.22-10,30.78q-13.11,13.26-26.43,26.3c-1.86,1.82-1.81,3-.57,5.25,3.31,6,2.81,12.44-.81,18.08-3,4.61-6.71,8.77-12,11.18-5.93,2.73-11.73,2.72-17.36-.57-1.59-.94-2.45-.75-3.68.48q-34.2,34.31-68.47,68.54-29.43,29.46-58.89,58.89c-5.38,5.36-11.34,9.76-18.92,11.78a39,39,0,0,1-17.73.81A3.87,3.87,0,0,0,43.22,270c-1.77,1.82-3.74,3.45-5.41,5.35a21.93,21.93,0,0,1-13,7.44c-6.45,1.13-11.93-1.5-16.57-5.76C4.11,273.16,2.39,268.19,2.57,262.11Zm52-5.71a19.39,19.39,0,0,0,9-2A31.79,31.79,0,0,0,74.08,247c7.61-8.12,15.66-15.83,23.53-23.7l21.69-21.69,21.89-21.89L164,156.85c6.59-6.59,13.05-13.32,19.81-19.74,5.85-5.54,11-11.78,17.28-16.89,1.87-1.52,2-2.83.17-4.64-4-3.93-8.11-7.77-12-11.84-6.32-6.61-12.92-12.95-19.36-19.45-2.61-2.64-2.55-2.69-5.21,0l-49.25,49.25q-39.93,39.93-79.85,79.85a19.6,19.6,0,0,0-4.1,6,27.81,27.81,0,0,0-1,21.44,4.74,4.74,0,0,1-1.23,5.27c-4,3.71-7.33,8-11.49,11.58a5.71,5.71,0,0,0-2.12,6.07c.69,2.55,1.82,4.87,4.62,5.59a7.28,7.28,0,0,0,7.4-2.29c3.34-3.45,6.84-6.75,10.17-10.22A7.3,7.3,0,0,1,45,254.67C48.24,255.23,51.26,256.72,54.61,256.4ZM269.35,45A17.45,17.45,0,0,0,265,32.34c-3.68-4.6-8.16-8.45-12.46-12.46-6.42-6-18.06-5.34-24.23.83-9.48,9.48-18.95,19-28.49,28.43-1.56,1.55-1.37,2.46.14,3.94,7.24,7.11,14.35,14.34,21.51,21.52,3.58,3.6,7.15,7.2,10.77,10.75.86.84,1.82,2.09,3.13.5,3-3.65,6.79-6.55,10-10,6-6.46,12.34-12.5,18.54-18.71A18.88,18.88,0,0,0,269.35,45Zm-91.63,6.34c-3.8,0-5.63,2.7-7.78,4.85q-4.84,4.85,0,9.71,23.73,23.73,47.53,47.41c5.8,5.76,7.26,5.69,13.11,0,4.33-4.23,4.43-7,0-11.23-6.83-6.48-13.17-13.45-20-19.92-5.85-5.54-11.31-11.47-17.15-17-4.18-4-8.15-8.22-12.38-12.18A5.74,5.74,0,0,0,177.72,51.37Z"/><path class="cls-1" d="M21.89,285.51c-5.32,0-10.45-2.24-15.29-6.67C2,274.65-.11,269.2.06,262.19c-.62-7,3.53-12.16,7.48-16.46l.35-.39a31,31,0,0,1,4.73-4.47c1.16-.83,1.57-1.59,1.1-4.17a37.8,37.8,0,0,1,6-28.26,67.31,67.31,0,0,1,9.37-10.62L31,196q25-25,50.06-50l32.65-32.64c13.13-13.15,26.71-26.73,40.14-40,1.31-1.3,1.29-1.43.58-2.74-4.8-8.94-2.62-19.4,5.55-26.65l.4-.36c3.08-2.74,6.27-5.56,10.48-7a19.68,19.68,0,0,1,16.74,2.06,2.52,2.52,0,0,0,.54.27,4.21,4.21,0,0,0,.58-.51c8.47-8.58,17.6-17.78,26.94-27,3.75-3.71,8-7.91,13.92-9.54,13.21-3.66,24-1.72,33,5.93a136.05,136.05,0,0,1,9.93,9.69c1.58,1.66,3.22,3.38,4.86,5,3.38,3.35,5.62,7.88,7.06,14.26,2.72,12.06-.87,23.19-10.66,33.09s-18.49,18.55-26.46,26.33c-.64.62-.71.87-.71.87a3.89,3.89,0,0,0,.59,1.39c3.66,6.7,3.34,14-.91,20.63-3.75,5.84-8,9.8-13,12.11-6.87,3.15-13.49,2.92-19.66-.7a2.35,2.35,0,0,0-.35-.18,2.72,2.72,0,0,0-.3.27Q183.49,160,154,189.41l-25,25c-14.25,14.26-29,29-43.51,43.49-6.61,6.59-13,10.54-20,12.42a41.22,41.22,0,0,1-18.85.86,1.4,1.4,0,0,0-1.62.5c-.76.78-1.55,1.52-2.31,2.24-1.08,1-2.11,2-3,3a24.33,24.33,0,0,1-14.41,8.25A19.61,19.61,0,0,1,21.89,285.51Zm155.05-245a14.13,14.13,0,0,0-4.5.76c-3.26,1.11-5.93,3.49-8.76,6l-.41.36c-6.38,5.65-8.13,13.72-4.46,20.54,2.22,4.13.6,6.6-1.47,8.66-13.42,13.29-27,26.87-40.13,40L84.56,149.46q-25,25-50.06,50l-1.91,1.89a61.94,61.94,0,0,0-8.69,9.8,32.89,32.89,0,0,0-5.26,24.63c.33,1.83,1.1,6.11-3.12,9.12a26.18,26.18,0,0,0-3.94,3.78l-.36.39c-4.14,4.51-6.62,8.22-6.17,12.75l0,.16v.16c-.17,5.55,1.44,9.79,4.91,13,4.72,4.33,9.44,6,14.45,5.14a19.46,19.46,0,0,0,11.5-6.62c1.07-1.22,2.23-2.32,3.35-3.37.76-.71,1.47-1.38,2.14-2.08a6.35,6.35,0,0,1,6.16-1.93,36.42,36.42,0,0,0,16.62-.78c6.25-1.67,11.74-5.1,17.8-11.13,14.52-14.47,29.25-29.22,43.5-43.48l25-25q29.44-29.44,58.85-58.92a5,5,0,0,1,6.72-.87c4.74,2.78,9.67,2.93,15,.46,4.18-1.92,7.65-5.18,10.92-10.26s3.5-10.44.72-15.53c-1.55-2.84-2-5.33,1-8.24,7.95-7.76,16.59-16.35,26.4-26.27,8.63-8.72,11.69-18,9.33-28.47-1.22-5.41-3-9.16-5.69-11.8-1.7-1.68-3.36-3.42-5-5.1a127.63,127.63,0,0,0-9.55-9.34c-7.73-6.58-16.75-8.15-28.4-4.92-4.66,1.29-8.27,4.84-11.75,8.28-9.32,9.19-18.43,18.38-26.89,26.94-1.42,1.44-3.72,3.12-7.23,1A15.73,15.73,0,0,0,176.94,40.47ZM22.27,272.09a10.4,10.4,0,0,1-2.56-.33c-4.25-1.09-5.69-4.72-6.41-7.35a8.12,8.12,0,0,1,2.91-8.63,74.13,74.13,0,0,0,6.28-6.26c1.63-1.75,3.31-3.56,5.13-5.25a2.24,2.24,0,0,0,.57-2.6,30.53,30.53,0,0,1,1-23.3,22.35,22.35,0,0,1,4.62-6.76q28.74-28.76,57.5-57.5l22.36-22.36L163,82.5c1.64-1.64,2.71-2.71,4.38-2.71h0c1.66,0,2.67,1,4.21,2.59l.16.15c2.38,2.41,4.8,4.8,7.21,7.19,4,4,8.18,8.12,12.18,12.29,2.8,2.93,5.76,5.8,8.64,8.58l3.29,3.2a5,5,0,0,1-.32,8.37,121,121,0,0,0-10.59,10.16c-2.11,2.19-4.3,4.46-6.56,6.61-4.69,4.44-9.32,9.13-13.8,13.67q-3,3-6,6L99.38,225.05q-3.37,3.38-6.79,6.73c-5.54,5.48-11.28,11.15-16.68,16.91a34.3,34.3,0,0,1-11.33,8,21.7,21.7,0,0,1-9.92,2.2,20,20,0,0,1-7-1,29,29,0,0,0-3-.73,4.83,4.83,0,0,0-4.91,1.42c-1.79,1.87-3.66,3.72-5.46,5.5-1.56,1.54-3.17,3.14-4.71,4.73A10,10,0,0,1,22.27,272.09ZM167.33,85.21c-.26.24-.54.53-.82.8l-49.26,49.28L94.89,157.65,37.4,215.14a17.21,17.21,0,0,0-3.59,5.27A25.32,25.32,0,0,0,32.9,240,7.22,7.22,0,0,1,31,247.93c-1.68,1.57-3.23,3.23-4.87,5a79.53,79.53,0,0,1-6.7,6.66c-1.66,1.41-1.55,2.68-1.33,3.51.75,2.76,1.67,3.52,2.82,3.81a4.78,4.78,0,0,0,5-1.6c1.57-1.63,3.2-3.24,4.78-4.8,1.78-1.76,3.62-3.58,5.37-5.41a9.81,9.81,0,0,1,9.38-2.89,35.42,35.42,0,0,1,3.48.84,15.38,15.38,0,0,0,5.42.87l.18,0h.19a16.86,16.86,0,0,0,7.81-1.77,29.27,29.27,0,0,0,9.71-6.87c5.46-5.83,11.24-11.54,16.82-17.05q3.39-3.34,6.76-6.71l66.43-66.43q3-3,5.95-6c4.5-4.56,9.16-9.28,13.91-13.78,2.18-2.07,4.32-4.3,6.4-6.45a128.63,128.63,0,0,1,11-10.57,3.35,3.35,0,0,0,.45-.41,4.62,4.62,0,0,0-.45-.51l-3.28-3.18c-2.91-2.81-5.91-5.72-8.77-8.71-3.95-4.13-8.09-8.23-12.09-12.2q-3.65-3.6-7.25-7.22l-.15-.16Zm56.66,35c-2.45,0-4.88-1.69-8.27-5C201.23,100.72,186.54,86,172.33,71.84l-4.14-4.14A9.41,9.41,0,0,1,165,61.07a9.36,9.36,0,0,1,3.15-6.62c.32-.31.63-.64.94-1,1.93-2,4.32-4.6,8.6-4.61h.22a8.18,8.18,0,0,1,4.89,2.25c2.26,2.13,4.47,4.34,6.61,6.49,1.88,1.89,3.83,3.85,5.78,5.71,2.93,2.78,5.79,5.68,8.55,8.48s5.68,5.76,8.6,8.53c3.47,3.29,6.85,6.75,10.13,10.09s6.5,6.65,9.86,9.84c1.87,1.77,4,4.21,4,7.32s-2.15,5.66-4,7.51C228.9,118.47,226.44,120.16,224,120.16ZM177.61,53.87c-2,.05-3.08,1.14-4.86,3-.34.37-.69.74-1,1.09A4.65,4.65,0,0,0,170,61.06a4.72,4.72,0,0,0,1.7,3.1l4.15,4.14c14.2,14.2,28.89,28.87,43.38,43.26,4.74,4.72,4.74,4.71,9.6,0,1.71-1.67,2.54-3,2.54-3.9s-.82-2.15-2.48-3.73c-3.42-3.25-6.77-6.66-10-10s-6.59-6.73-10-10c-3-2.83-5.9-5.79-8.72-8.65s-5.57-5.65-8.43-8.37c-2-1.9-4-3.88-5.89-5.8-2.1-2.12-4.28-4.31-6.48-6.37A3.27,3.27,0,0,0,177.61,53.87ZM234.1,89.11a4.88,4.88,0,0,1-3.42-1.78l-.19-.2c-3-2.95-6-6-9-8.91l-1.84-1.85c-2-2-4-4-6-6-5.06-5.09-10.29-10.36-15.49-15.46a5.52,5.52,0,0,1-2-3.82,5.29,5.29,0,0,1,1.84-3.69C205.39,40.12,212.8,32.7,220,25.53l6.58-6.59c7.24-7.24,20.45-7.66,27.71-.89l2.34,2.16A96.86,96.86,0,0,1,267,30.78a19.87,19.87,0,0,1,4.9,14.35v.09a21.51,21.51,0,0,1-6.2,13.7c-1.84,1.85-3.7,3.68-5.56,5.51-4.3,4.25-8.76,8.64-12.92,13.13-1.42,1.54-2.95,3-4.42,4.34a59.14,59.14,0,0,0-5.45,5.54,4.08,4.08,0,0,1-3,1.67ZM201.46,51l.25.26c5.23,5.13,10.47,10.41,15.54,15.51l6,6,1.84,1.85C228,77.61,231,80.63,234,83.56l0,0a69,69,0,0,1,5.33-5.35c1.47-1.37,2.87-2.67,4.16-4.07,4.24-4.58,8.74-9,13.08-13.3,1.85-1.82,3.7-3.64,5.53-5.48a16.27,16.27,0,0,0,4.75-10.51c.18-4.94-1.32-7.86-3.81-11a94,94,0,0,0-9.85-10l-2.36-2.18c-5.32-5-15.41-4.59-20.76.76l-6.58,6.59c-7.17,7.18-14.58,14.6-21.92,21.86Z"/></g></g></svg>