<svg xmlns="http://www.w3.org/2000/svg" viewBox="0 0 343.34 369.62"><defs><style>.cls-1{fill:#a59ad1;}</style></defs><g id="Layer_2" data-name="Layer 2"><g id="Layer_1-2" data-name="Layer 1"><path class="cls-1" d="M64.05,32.8c0-8.06,0-15.63,0-23.19,0-5.84,3.37-9.6,8.57-9.61s8.79,3.74,8.84,9.48c.07,7.58,0,15.15,0,23H261.86V24.83c0-5.32-.1-10.64,0-16s4-9,9.09-8.87c4.91.13,8.29,3.85,8.31,9.2,0,7.68,0,15.36,0,23.6,1.73,0,3.26,0,4.78,0,8.79.4,17.83-.35,26.31,1.48,19.8,4.26,32.92,21.62,32.93,41.88q0,141.4,0,282.8c0,7.57-3.12,10.65-10.72,10.65H10.78C3.16,369.62,0,366.54,0,359Q0,217.63,0,76.23C0,51.82,19.14,32.85,43.59,32.81ZM325.41,351.93V111.7H17.94V351.93ZM18.07,93.53H325.66c0-6,0-11.71,0-17.45,0-12.3-7.75-22.93-19.86-24.79C297.24,50,288.33,51,279.3,51c0,3.48.22,7.21-.08,10.9a11.52,11.52,0,0,1-2,5.55,8.12,8.12,0,0,1-9.45,2.66,8.62,8.62,0,0,1-5.92-8.28c-.12-3.7,0-7.41,0-11.3H81.47c0,3.78.08,7.37,0,11-.15,5.45-3.86,9.15-8.92,9.07s-8.45-3.73-8.48-9.34c0-3.57,0-7.14,0-10.88-7.28,0-14.06,0-20.84,0-12.28,0-23.28,8.57-25,20.66C17.24,78.33,18.07,85.88,18.07,93.53Z"/><path class="cls-1" d="M103.84,234.25v-6.6q0-17,0-34c0-6.78,3.14-9.91,10-9.92q22.23,0,44.47,0h4.62c0-4.42-.08-8.55,0-12.67.15-5.52,3.43-8.91,8.51-9s8.5,3,8.84,7.91a80.27,80.27,0,0,1,.06,10.17c-.18,2.81.72,3.68,3.58,3.65,14.82-.13,29.64-.06,44.46-.06,8.41,0,11.1,2.72,11.1,11.21q0,17.66,0,35.31c0,1.21.11,2.42.18,4h20.58c7.2,0,10.35,3.11,10.36,10.32q0,28.17,0,56.35c0,7.53-3,10.44-10.5,10.44H83.28c-7.57,0-10.56-2.88-10.57-10.37q0-28.17,0-56.34c0-7.39,3.12-10.39,10.62-10.4ZM90.45,293.84H252.82v-42H90.45ZM121.39,234h100.5V201.67H121.39Z"/></g></g></svg>