<svg xmlns="http://www.w3.org/2000/svg" viewBox="0 0 444.54 445.21"><defs><style>.cls-1{fill:#a59ad1;}</style></defs><g id="Layer_2" data-name="Layer 2"><g id="Layer_1-2" data-name="Layer 1"><path class="cls-1" d="M219.61,445.21a171.75,171.75,0,0,1-40.12-4.4C89.22,419.38,31.64,364.62,8.37,278.05-11.92,202.59,4.71,133.71,57.8,73.33c34-38.69,77.88-62.4,130.4-70.47A241.69,241.69,0,0,1,224.78,0c50,0,96.3,16.86,137.74,50.12,41.19,33.06,67.3,76.49,77.61,129.06,7.54,38.49,5.4,76.1-6.36,111.78-9.64,29.26-28.93,45.94-57.34,49.58a83.43,83.43,0,0,1-10.67.7c-24.39,0-44.35-11.86-59.33-35.26-.31-.48-.61-1-.91-1.46l-.91-1.47a8.92,8.92,0,0,0-1.89-2.11l-.17-.15-5.16-4.66-5.33,4.47c-20,16.78-43.78,25.64-68.65,25.65-29.14,0-57.76-12.12-76.57-32.4C115,259.47,110.4,203.45,136.43,166.3c17.72-25.3,39.95-39.91,67.95-44.65a109.77,109.77,0,0,1,18.42-1.59c21.21,0,41.75,6.69,61.07,19.9l9.86,6.74L296.21,135c1.75-8.23,5.85-12.79,13.31-14.79a8.26,8.26,0,0,1,2.14-.27c6.43,0,13.54,6.21,13.6,11.86.17,19,.31,38.3.43,57,.17,24.59.34,50,.62,75,.08,6.8.36,14.67,2.82,22.09,5.11,15.47,19.95,26.06,36.92,26.37h.83c17.58,0,32.26-10,37.4-25.47a223.4,223.4,0,0,0,9.66-41.21c4.25-32.77.06-64.3-12.45-93.73-29-68.26-80-108.33-151.41-119.09a193.2,193.2,0,0,0-28.67-2.16C126.73,30.62,47.16,99,32.23,193.29c-16,100.81,52,198.9,151.48,218.67A206.9,206.9,0,0,0,223.89,416a188.15,188.15,0,0,0,86.87-21.33l1.29-.67c4.41-2.27,8.57-4.42,12.84-6.1a15.13,15.13,0,0,1,5.58-1.12c4.82,0,9,2.74,11.5,7.53,3.62,7,1.8,14.78-4.33,18.56-26.25,16.18-54,26.23-82.52,29.86A280.44,280.44,0,0,1,219.61,445.21Zm2.84-148.06c1.18.07,2.38.11,3.56.11,17.15,0,34.81-7.91,48.46-21.71,14.46-14.62,22.64-33.64,22.44-52.18-.44-40.18-34.52-74.29-74.43-74.5h-.34c-18.85,0-37.75,8.17-51.86,22.41-14.35,14.48-22.15,33.15-22,52.59.35,39.06,33.84,73.33,71.66,73.33C220.8,297.2,221.63,297.18,222.45,297.15Z"/></g></g></svg>