<svg xmlns="http://www.w3.org/2000/svg" viewBox="0 0 284.39 387.79"><defs><style>.cls-1{fill:#a59ad1;}</style></defs><g id="Layer_2" data-name="Layer 2"><g id="Layer_1-2" data-name="Layer 1"><path class="cls-1" d="M117.82,387.79c-6.14,0-10.44-4.67-10.46-11.34,0-6.51,0-13,0-19.67v-14H91q-9.16,0-18.33,0c-6.5,0-11-4.31-11.06-10.41s4.65-10.42,11.06-10.47q4.27,0,8.53,0l9.06,0,7.79,0h9.33v-8.8c0-2.17,0-4.33,0-6.5,0-5.43,0-11,.09-16.54.08-3.44-1.14-7.72-7.39-8.59a111.83,111.83,0,0,1-57.69-25.87C17,234.1,2.88,206.57.35,173.75-3.37,125.51,23,79.63,66,59.6c17.8-8.29,35.51-12.49,52.66-12.49,23.9,0,47.48,8.16,70.1,24.27.53.38,1.07.74,1.34.92l3.49,2.34,2.93-2.89,50.35-50.21L235.58,21l-1-.06c-.88-.05-1.88-.11-2.9-.11h-9.91l-7.69,0c-4.58,0-8.3,0-11.71-.08a10.77,10.77,0,0,1-8.67-4.28,10.49,10.49,0,0,1-1.4-9.32C193.62,2.78,197.53,0,202.48,0h65.13c2,0,4,0,6,0,6.29.05,10.7,4.36,10.72,10.49.07,24.22.06,48.25,0,71.43,0,6.11-4.36,10.58-10.31,10.64h-.12c-5.94,0-10.33-4.49-10.41-10.68-.1-7-.09-14.1-.08-21q0-4.57,0-9.17V36.37l-8.44,8-1.42,1.33c-.81.76-1.45,1.36-2.07,2L241.19,58c-9,9-18.29,18.3-27.47,27.41-3.08,3.06-3.36,6.69-.81,10.21a116.7,116.7,0,0,1,22.73,72.88c-1.29,53.5-40.21,100.46-92.54,111.66-1.19.26-2.39.47-3.66.69-1.73.31-3.52.63-5.33,1.07-2.28.55-5.67,3-5.72,6.54-.1,7.57-.09,15-.09,22.93v10.53h17.58c2.82,0,5.6,0,8.39,0h4.56a50.61,50.61,0,0,1,6.62.33,10.15,10.15,0,0,1,8.59,10.68,10.33,10.33,0,0,1-10.29,9.85c-3.67,0-7.34.05-11,.05H128.28V358.9c0,5.85,0,11.7,0,17.55,0,6.57-4.42,11.34-10.46,11.34Zm-.53-320a97.31,97.31,0,0,0-96.45,98c.51,53,43.82,96.15,96.54,96.16h.81a97.17,97.17,0,0,0,96.58-97.78c-.46-53.12-43.9-96.34-96.83-96.34Z"/><path class="cls-1" d="M129.51,197.28c-17.36,0-34.57,0-51.15-.07a9.35,9.35,0,0,1-6.64-2.44,8.05,8.05,0,0,1-2.37-6c0-5,3.68-8.32,9.13-8.33h44.25v0H157c5.42,0,9.25,3.39,9.31,8.22a8.14,8.14,0,0,1-2.32,6,9.48,9.48,0,0,1-6.84,2.63Q143.32,197.29,129.51,197.28Z"/><path class="cls-1" d="M122.5,149l-5-.05H94.22q-8.4,0-16.78-.05a8.27,8.27,0,0,1-8-6.52,8.12,8.12,0,0,1,4.26-9.08,10.4,10.4,0,0,1,4.32-1c17-.07,34.22-.1,51-.1q14.3,0,28.57,0a8.8,8.8,0,0,1,6.31,2.51,8.26,8.26,0,0,1,2.34,6c0,4.76-3.83,8.23-9,8.25l-16.38,0Z"/></g></g></svg>