<svg xmlns="http://www.w3.org/2000/svg" viewBox="0 0 321.02 367.69"><defs><style>.cls-1{fill:#a59ad1;stroke:#a59ad1;stroke-miterlimit:10;stroke-width:4px;}</style></defs><g id="Layer_2" data-name="Layer 2"><g id="Layer_1-2" data-name="Layer 1"><path class="cls-1" d="M183,365.69c-14,0-27.92,0-41.88,0S117.45,356,117.44,342c0-8.37,0-16.75,0-25.13,0-7.66-3.57-11.21-11.21-11.22q-18.85,0-37.7,0c-16.3,0-25.65-9.3-25.65-25.52,0-14.61,0-29.22,0-43.82,0-7-3.47-10.43-10.44-10.54a82.1,82.1,0,0,1-11.86-.56C6.1,222.84-1.87,207.43,3.88,193.94,11.31,176.48,18.81,159,25.56,141.3c4.3-11.29,7.14-23.12,10.86-34.64,11.81-36.57,32-66.83,65.91-86.56A129.8,129.8,0,0,1,155.45,2.89c46.76-4.6,87.81,8.61,122.81,39.91a121.93,121.93,0,0,1,40.38,100.64c-2.84,37-19.15,68.4-41.16,97.26a300,300,0,0,1-21.34,24.95c-7.84,8.23-11.65,18.07-13.85,28.83-2.85,14,0,27.24,4.83,40.31,5.66,15.18-5.3,30.76-21.61,30.9H183Zm-.12-13.34c14.18,0,28.35.06,42.53,0,7.45,0,11.74-6.45,9.07-13.3-5.78-14.87-8.55-30.1-5.5-46,2.6-13.6,7.5-26,17.32-36.3,22.14-23.3,40.74-49,51.72-79.6,6.75-18.8,9.57-38.15,6.76-57.94-4.13-29-18.27-52.75-40.89-71.14-29.46-24-63.32-34.9-101.35-32.41C141,17,121.05,23.35,103.08,35.37,74.31,54.63,57.87,82.46,47.79,114.85q-8.07,25.93-17.46,51.43c-3.91,10.66-8.85,20.94-13.48,31.32-3.71,8.34.26,14.8,9.33,14.87,2.47,0,4.94,0,7.41,0A22.28,22.28,0,0,1,56.05,235c0,15.25,0,30.5,0,45.76,0,7.9,3.43,11.36,11.37,11.38,12.45,0,24.91-.18,37.37.11a34,34,0,0,1,12.5,2.27c9.09,3.95,13.11,11.68,13.3,21.37.17,8.48,0,17,0,25.46,0,7.59,3.45,11,11,11Z"/><path class="cls-1" d="M135.69,60.91c12.33.2,23,5.46,31.62,15a33.23,33.23,0,0,0,4.27,4.36c4.78,3.62,10.57,2.76,14.84-2.3,7-8.32,15.44-14.36,26.28-16.25,17-3,31,2.9,41.57,16.17,9.9,12.36,13,26.68,10.72,42.36a53.84,53.84,0,0,1-13.46,28.33q-33.5,37.89-66.85,75.91c-.35.41-.72.8-1.08,1.2-4,4.37-7.74,4.39-11.69-.08q-19.83-22.46-39.6-45c-9.72-11-19.39-22.13-29.17-33.12C83.17,125.1,86,88.27,109.1,70A42.11,42.11,0,0,1,135.69,60.91Zm41.93,151c.81-.77,1.39-1.24,1.87-1.79,21.15-24,42.37-47.95,63.42-72,12.57-14.4,12.66-37.57.49-52.32-9.61-11.64-24.33-14.83-36.9-7.46-3.79,2.22-7,5.58-10.08,8.85-7.67,8.26-18.13,11.21-28,6.53-4.11-1.94-7.76-5.34-10.89-8.75-12.9-14.08-32.25-14.12-44.81.2-12.88,14.68-12.86,38.31.17,53.24,11.79,13.51,23.7,26.91,35.55,40.37C158.09,189.67,167.73,200.63,177.62,211.89Z"/></g></g></svg>