<svg xmlns="http://www.w3.org/2000/svg" viewBox="0 0 325.91 328.97"><defs><style>.cls-1{fill:#a59ad1;}</style></defs><g id="Layer_2" data-name="Layer 2"><g id="Layer_1-2" data-name="Layer 1"><path class="cls-1" d="M173.86,115.44q4.32-23.73,8.67-47.45a5.28,5.28,0,0,1,1.43-2.6Q208,41.14,232.18,17c5.31-5.33,10.65-10.63,15.89-16C249.3-.33,250-.3,251.24,1q30.21,30.46,60.55,60.82c1.58,1.57,1.57,2.35-.05,4-16.51,16.44-32.92,33-49.36,49.51-4,4-8,8-12.08,12a6.25,6.25,0,0,1-2.61,1.53q-23.92,6.43-47.88,12.71a3.56,3.56,0,0,1-2.9-.66q-11.11-11-22-22.11a11.14,11.14,0,0,1-1.5-3Zm72.71-90.36c-.6.53-1.15,1-1.65,1.46Q224.39,46.8,203.83,67.06a9.33,9.33,0,0,0-2.66,5.09c-1.71,9.81-3.55,19.6-5.43,29.38-.41,2.13.34,3.3,2.89,4.92a34,34,0,0,1,9.91,9.71c2,3,3.35,3.87,5.77,3.21,9.83-2.68,19.7-5.23,29.54-7.92a7.07,7.07,0,0,0,3.1-1.79q20.55-20.26,41-40.6c1-1,1-1.67.05-2.57-1.8-1.75-3.56-3.53-5.33-5.3L248.2,26.57C247.74,26.11,247.24,25.69,246.57,25.08Z"/><path class="cls-1" d="M140,201.57c-1.58,8.44-3,16.2-4.48,24-1.56,8.18-3.11,16.37-4.8,24.53a7.55,7.55,0,0,1-1.95,3.55q-21.39,21.47-42.91,42.81C78.94,303.28,72,310.11,65.17,317c-1.25,1.28-2,1.45-3.32.09q-30.12-30.39-60.34-60.7c-2-2-2-2.05,0-4.06L53.61,200.6c3.26-3.24,6.49-6.51,9.81-9.69A5.94,5.94,0,0,1,66,189.47c15.86-4.33,31.74-8.58,47.59-12.92a3.33,3.33,0,0,1,3.67,1.18c7.23,7.37,14.51,14.68,21.74,22.05A6.33,6.33,0,0,1,140,201.57Zm-21.91,14.26a4.56,4.56,0,0,0-.8-1.66c-4.74-4.95-9.49-9.89-14.37-14.7a3.72,3.72,0,0,0-3.08-.65c-10.33,2.74-20.62,5.59-30.91,8.48a6.15,6.15,0,0,0-2.64,1.54q-20.2,19.93-40.33,39.95a3,3,0,0,0,0,4.19L65,291.78c2,2,2.08,2.08,4.13,0Q90,271,110.88,250.06a4.64,4.64,0,0,0,1.29-2.23C114.14,237.41,116,227,118.07,215.83Z"/><path class="cls-1" d="M140.9,109.57a11,11,0,0,1,7.28,3.37q17.65,17.84,35.29,35.71c5.7,5.77,11.44,11.5,17.1,17.31,5.29,5.44,5.19,11.11-.09,16.47q-9.87,10-19.68,20c-5.45,5.58-11.25,5.71-16.79.23q-26.76-26.42-53.46-52.89c-4.08-4-4.56-10.44-.65-14.62,7.3-7.81,14.83-15.4,22.43-22.92A10.09,10.09,0,0,1,140.9,109.57Z"/><path class="cls-1" d="M221.94,329c-1.54-3.66-3-7.1-4.43-10.54-.79-1.9-1.48-3.86-2.4-5.7-.78-1.57-.37-2.31,1.15-3.05a210,210,0,0,0,38.11-24,207.87,207.87,0,0,0,53.27-62,2,2,0,0,1,2.72-.78c4.65,2.55,9.34,5,14.1,7.39,1.77.87,1.74,1.77.87,3.27a235.63,235.63,0,0,1-26.06,36.72,239.92,239.92,0,0,1-68.82,54.39C227.74,326.17,225,327.48,221.94,329Z"/><path class="cls-1" d="M200.18,276c1.27-.68,2.41-1.32,3.57-1.92,30-15.54,53.42-38,70.8-66.86.81-1.34,1.42-1.79,2.9-1,4.18,2.17,8.41,4.26,12.65,6.31,1.35.66,1.63,1.21.81,2.68a185.43,185.43,0,0,1-40,48.92,195.43,195.43,0,0,1-42,28.1c-1.14.57-1.76.68-2.33-.73C204.57,286.33,202.39,281.26,200.18,276Z"/><path class="cls-1" d="M240.86,187.41c1.14.55,1.6.75,2.32,1.16q6.47,3.7,13.27,6.8c2,.92,2.35,1.7,1.24,3.46a166.84,166.84,0,0,1-29.62,35.27,162.22,162.22,0,0,1-33.64,23.14,1.92,1.92,0,0,1-2.73-1.05c-1.88-5-3.79-9.91-5.89-14.78-.78-1.82-.27-2.57,1.32-3.41a135.89,135.89,0,0,0,35.33-27,138,138,0,0,0,16.88-21.83A14.8,14.8,0,0,1,240.86,187.41Z"/></g></g></svg>