<svg xmlns="http://www.w3.org/2000/svg" viewBox="0 0 410.19 432.63"><defs><style>.cls-1{fill:#a59ad1;}</style></defs><g id="Layer_2" data-name="Layer 2"><g id="Layer_1-2" data-name="Layer 1"><path class="cls-1" d="M130.33,25c0-1.52,0-4.16,0-6.8.06-7.49,3.45-13.23,10.69-15C157.26-1,173.7-1.67,189.49,4.9c9.13,3.8,14.3,11,14.15,21.49,0,1.31,1.69,3.41,3,3.85,49.54,16.42,84.28,48.51,103.44,97.24A150.85,150.85,0,0,1,320,197c-3.53,39.12-19.37,72.86-47.3,100.67-2.54,2.53-3,4.35-2.06,8.08,1.81,7.18,2.45,14.72,2.89,22.16.26,4.37,1.73,5.85,6,5.57,19.42-1.26,38.87-2.08,58.25-3.66,6-.5,12.06-2.44,17.71-4.68a13.19,13.19,0,0,0,6.53-6.73c5.28-12.85,4.18-26.45,3.47-39.9-.07-1.37-2.92-3.29-4.79-3.78-13.26-3.44-22.22-11.72-27.27-24.16-9.17-22.62,5.38-48.65,29.72-53.35,20.48-4,39.18,9.78,44.68,25.27,7.52,21.15-3.31,44.45-24.77,51.46-3.28,1.07-3.45,2.6-3.56,5.29-.45,11-.05,22.09-1.91,32.81-3.3,19.05-8.47,24.33-26.21,28.59-24.19,5.81-48.76,6.37-73.42,5.75-3.88-.09-5.21,1.23-6.6,4.87a59.8,59.8,0,0,1-9,16.3c-2.56,3.15-2.78,5.84-2.87,9.4-.23,8.39.16,17.06-1.82,25.09-3.53,14.27-14.43,22.46-28.08,25.42-27.34,5.92-55.19,5.8-83,4.42-12.3-.62-24.62-1.28-36.87-2.55-26.26-2.72-43.21-18.48-43.65-45.75-.08-4.37,1.79-8.74,2.34-13.16.23-1.81,0-4.5-1.13-5.54-9.11-8.31-12.56-19.16-13.34-30.8-.53-7.9.36-15.94,1.08-23.88.33-3.55,0-6-2.89-8.69A156.18,156.18,0,0,1,5.3,224.18a152.12,152.12,0,0,1-2.5-68.71C13.43,101.52,43.58,62.58,92.88,38.73,104.41,33.15,117,29.77,130.33,25ZM306.84,184.06c1-80.74-66.37-147.14-146.34-147.1C79.68,37,15.74,102.4,13.56,179.06,11.14,264.52,81.14,330.5,160.24,330.44,240.1,330.39,307.37,264.55,306.84,184.06ZM165.34,419.67c19.29-1,34.47-1.36,49.54-2.8a54,54,0,0,0,18.93-5.55c11.92-6.06,13.87-17.34,13.22-29.45-.36-6.63-1.09-6.93-7.5-6.05-9.38,1.29-18.82,2.75-28.26,2.88-26.48.39-53,.53-79.44,0-14.43-.3-28.85-2-43.23-3.52-6.87-.73-8-.67-8.65,4.58-2.22,19.39,8.51,33.31,27.27,35.49C127.85,417.62,148.66,418.45,165.34,419.67ZM67.51,314.23c0,6.95-.18,12.76,0,18.54.79,21.34,12.78,28.35,28.78,30.05a609,609,0,0,0,66.28,3.46c24.92-.07,49.85-1.88,74.75-3.35,9.58-.56,18.68-2.9,21.27-14.3.7-3.07,1.29-6.18,1.75-9.29,1.39-9.47-.49-18.65-2.14-28.92-28.58,21.41-59.84,32.69-94.48,33.46S97.34,334.7,67.51,314.23ZM370.7,262.35c15.76.51,26.38-13.51,26.3-26.18a26.83,26.83,0,0,0-26.86-26.38,26.07,26.07,0,0,0-25.79,26.67C344.51,251.45,355.69,262.43,370.7,262.35ZM189.06,24.71c.9-3.57-.71-6.77-6.49-8.1a139.18,139.18,0,0,0-21.54-3c-4.25-.3-8.61.57-12.89,1.14-3.47.47-4.83,3-4.25,6.14a4.61,4.61,0,0,0,3.3,2.88C161.07,24.26,175,24.45,189.06,24.71Z"/><path class="cls-1" d="M34,185a126.42,126.42,0,1,1,252.82-2.63c.75,70.18-54.8,127.24-125.71,127.81C90.72,310.76,34.28,253.93,34,185Zm156.78,28.63-27.47,12.27c0,4.57,0,10.53,0,16.5.07,16.48.25,33,.18,49.45,0,4.06,1.5,5.46,5.38,4.69,2.44-.49,4.91-.9,7.39-1.21,21.53-2.65,40.4-11.39,56.85-25.31,8.3-7,7.33-5.12.35-12.25C218.8,242.79,204.3,227.66,190.76,213.64Zm-136.42-34c-7.6.29-7.91.36-7.23,7.79.63,6.92,1.67,13.83,3,20.66,3.23,16.75,10.69,31.59,21.08,45,1.81,2.35,3.22,2.61,5.64.57q24.77-20.9,49.76-41.51c1.86-1.54,2.16-2.62.86-5a109.81,109.81,0,0,1-6.29-13.94c-1-2.63-1.83-4.62-5.26-4.79-3.61-.18-7.15-1.36-10.76-1.87C88.21,184.29,71.27,182,54.34,179.66ZM131,153.34c.45.83.31.3,0,0q-24.54-23.37-49.11-46.75c-2.46-2.35-4-.71-5.22,1.1-6.53,9.76-13.82,19.16-19.1,29.57-4.45,8.78-6.51,18.78-9.79,28.7,2.77.44,4,.69,5.35.84,13.53,1.53,27.07,2.95,40.59,4.62,6.57.81,13.06,2.24,19.64,3.06,2.67.33,6,2.39,8-1.43C124.51,166.76,127.54,160.43,131,153.34ZM248.75,253.8C264,234.41,271.5,213.14,273.25,189c-15-1.83-29.47-3.73-44-5.31-8.09-.89-16.25-1.19-24.37-1.85-2.89-.24-4.08.69-4.39,3.78-.41,4.25-.91,8.71-2.55,12.58-1.52,3.56-.5,5.41,1.84,7.7Q221.44,227,243,248.26C244.7,250,246.49,251.65,248.75,253.8ZM170.4,71.26c0,3.53,0,6.46,0,9.39q-.18,29.5-.37,59c0,3.08.39,5.21,4.2,6.13,3.26.78,6.35,2.83,9.16,4.83,2.38,1.7,3.89,1.72,5.84-.52q21.17-24.27,42.51-48.39c2.21-2.5,1.94-4.13-.6-6.1C213.57,81.94,194,73.31,170.4,71.26ZM83.34,265.8c13.27,14.91,46.44,30.34,64.22,30,1,0,2.68-2.21,2.68-3.39q-.13-32.92-.72-65.85c0-1.5-1.12-4.17-1.94-4.26-3.53-.4-6.09-5.56-10.63-1.5-8,7.19-16.62,13.77-24.89,20.7C102.52,249.46,93.07,257.54,83.34,265.8ZM89.91,95.61c2,1.83,3.54,3.13,5,4.49C108.57,113,122.55,125.62,135.76,139c5.06,5.12,9.18,9.16,16.51,4.84,1-.61,2.54-.48,3.89-.71.12-1.2.3-2.19.31-3.17.13-21.82.17-43.65.41-65.48,0-3.63-1.56-4.37-4.58-3.72-10.35,2.25-20.93,3.79-31,7A88.45,88.45,0,0,0,89.91,95.61Zm154.43,12.8a15.22,15.22,0,0,0-2.3,1.7c-14.82,16.87-29.65,33.74-44.33,50.73a5.36,5.36,0,0,0-.91,4.7c.56,1.2,2.67,2.17,4.2,2.34q31.73,3.51,63.46,6.7c2.72.28,5.5,0,8.53,0C270.45,149.3,261.3,127.32,244.34,108.41Zm-111,75.33A27.29,27.29,0,0,0,160.1,211c14.36.22,27.54-12.85,27.55-27.32,0-14.77-12.67-27-28.15-27.12C145.46,156.42,133.33,169,133.35,183.74Z"/></g></g></svg>