<svg xmlns="http://www.w3.org/2000/svg" viewBox="0 0 339.12 338.77"><defs><style>.cls-1{opacity:0.49;}.cls-2{fill:#669;}</style></defs><g id="Layer_2" data-name="Layer 2"><g id="Layer_1-2" data-name="Layer 1"><g id="Layer_2-2" data-name="Layer 2"><g id="Layer_1-2-2" data-name="Layer 1-2"><path d="M157.93.39a37.66,37.66,0,0,0,9-.3c4.75-.39,9.43.72,14.2.48A3.86,3.86,0,0,0,183.84,0c.21.6.75.42,1.2.45a165.5,165.5,0,0,1,28.37,5A162.57,162.57,0,0,1,249.2,19.7a168.49,168.49,0,0,1,77,84.93,165.51,165.51,0,0,1,12.28,78.51,165.72,165.72,0,0,1-19.76,66.71,168.67,168.67,0,0,1-81.06,74.88,159,159,0,0,1-43.15,12.34,91.2,91.2,0,0,0-10.92,1.59c-5.47-1-11,.51-16.46,0a77.08,77.08,0,0,0-11.77,0c-.18-.63-.75-.42-1.14-.45A169,169,0,0,1,37.14,274.74,167.05,167.05,0,0,1,.24,177.29a162,162,0,0,1,7.21-57.41A168.45,168.45,0,0,1,82.12,24.17a161.92,161.92,0,0,1,52-20.57A130,130,0,0,1,157.93.39Z"/><g class="cls-1"><path class="cls-2" d="M149.1,173.23c6.45,0,12.91-.18,19.36,0,2.32,0,2.77-.72,2.77-3V119.91a14.23,14.23,0,1,1,28.4,0v49.72c0,2.49.39,3.45,3.18,3.36,7.54-.21,15,0,22.64,0,1.83,0,2.37-.54,2.34-2.37V149.19a14.05,14.05,0,0,1,13.06-15c.32,0,.64,0,1,0a14.24,14.24,0,0,1,14.46,14c0,.34,0,.68,0,1v21c0,2.07.57,2.67,2.64,2.64h22.94c2.28,0,3,.63,2.76,2.83-.42,5.61.69,11.31-.72,16.9A14.07,14.07,0,0,1,269.16,203,14.36,14.36,0,0,1,256,189.3V175.91c0-2.23-.36-3-2.85-3-7.45.18-15,.15-22.34,0-2.19,0-2.85.57-2.82,2.83v38.4a14.23,14.23,0,0,1-26.81,6.75,17.37,17.37,0,0,1-1.86-8.32V176.24c0-2.29-.51-3-3-3q-10.91.27-21.74,0c-2.43,0-3.21.6-3.18,3V226a14.39,14.39,0,0,1-10.81,15,13.15,13.15,0,0,1-12.73-3c0-3.33.48-6.69.45-10-.15-17.48,1.11-34.95.69-52.42A18.1,18.1,0,0,0,149.1,173.23Z"/><path class="cls-2" d="M143.12,173.23H114.57V132.46a14.15,14.15,0,0,1,13.18-14.65,13.91,13.91,0,0,1,15.3,12.35,12.57,12.57,0,0,1,.07,1.37C143.34,145.43,143.12,159.33,143.12,173.23Z"/><path class="cls-2" d="M85.93,173.26h28.58v25a13.92,13.92,0,0,1-13.21,13.54,14.22,14.22,0,0,1-14.71-10.89,29.77,29.77,0,0,1-.51-5.32c0-7.41,0-15-.15-22.28Z"/><path class="cls-2" d="M86,173.23c-7.72-.66-15.43-.18-23.15-.27-5.43,0-5.43,0-5.43-5.52V157.35a14.29,14.29,0,0,1,14-14.59h.42A14.14,14.14,0,0,1,86,156.86c0,.21,0,.43,0,.64v15.73Z"/><path class="cls-2" d="M149.1,173.23v2.38c.42,17.47-.84,34.94-.69,52.42,0,3.3-.57,6.66-.45,10a11.75,11.75,0,0,1-4.84-9.42V173.23h6Z"/></g></g></g></g></g></svg>