<svg xmlns="http://www.w3.org/2000/svg" viewBox="0 0 324.31 351.07"><defs><style>.cls-1{fill:#a59ad1;}</style></defs><g id="Layer_2" data-name="Layer 2"><g id="Layer_1-2" data-name="Layer 1"><g id="SVGRepo_iconCarrier" data-name="SVGRepo iconCarrier"><path class="cls-1" d="M11.12,351.07A11.14,11.14,0,0,1,0,339.94V302.19a86.74,86.74,0,0,1,86.64-86.64,11.13,11.13,0,0,1,0,22.25,64.46,64.46,0,0,0-64.39,64.39v26.63H302.06V302.19a64.46,64.46,0,0,0-64.39-64.39H162.15a11.13,11.13,0,0,1,0-22.25h75.52a86.74,86.74,0,0,1,86.64,86.64v37.75a11.14,11.14,0,0,1-11.12,11.13Zm143-177.79A86.64,86.64,0,0,1,154.15,0a11.13,11.13,0,1,1,0,22.25,64.36,64.36,0,1,0,55.79,32.2,11.13,11.13,0,0,1,9.61-16.7,11.15,11.15,0,0,1,9.64,5.56,86.64,86.64,0,0,1-75,130Z"/></g></g></g></svg>