<svg xmlns="http://www.w3.org/2000/svg" viewBox="0 0 325.32 324.98"><defs><style>.cls-1{fill:#fed766;}</style></defs><g id="Layer_2" data-name="Layer 2"><g id="Layer_1-2" data-name="Layer 1"><g id="Layer_2-2" data-name="Layer 2"><g id="Layer_1-2-2" data-name="Layer 1-2"><path d="M151.5.37a36.74,36.74,0,0,0,8.64-.28c4.55-.38,9,.69,13.62.46A3.69,3.69,0,0,0,176.35,0c.21.58.72.4,1.16.43a158.79,158.79,0,0,1,27.21,4.75,156.29,156.29,0,0,1,34.33,13.71,161.6,161.6,0,0,1,73.88,81.48,158.71,158.71,0,0,1,11.78,75.32,159.06,159.06,0,0,1-18.95,64A161.76,161.76,0,0,1,228,311.51a152.23,152.23,0,0,1-41.38,11.84,84.17,84.17,0,0,0-10.49,1.53c-5.24-.95-10.54.49-15.78,0a73.36,73.36,0,0,0-11.29,0c-.17-.61-.72-.41-1.09-.43A162.18,162.18,0,0,1,35.63,263.56,160.23,160.23,0,0,1,.23,170.07,155.16,155.16,0,0,1,7.15,115,161.53,161.53,0,0,1,78.78,23.19,155.2,155.2,0,0,1,128.66,3.46,123.87,123.87,0,0,1,151.5.37Z"/></g></g><path class="cls-1" d="M162.63,248.46a82.26,82.26,0,0,1-19.57-2.38c-24.69-6-43.52-20.41-56-42.73A81.35,81.35,0,0,1,77,169.14c-1.61-22.89,4.85-43.45,19.22-61.18H86.54c-5.51,0-9.83-4.11-9.84-9.34s4.2-9.35,9.8-9.37h33.27a9.25,9.25,0,0,1,9.64,9.63q0,16.7,0,33.4c0,5.52-4,9.68-9.33,9.68h-.34a9.36,9.36,0,0,1-9-9.63c0-4.13,0-8.26,0-12.39v-.26A67.21,67.21,0,0,0,100,137.93a67.27,67.27,0,0,0,20.4,76.84,65,65,0,0,0,24.87,12.67,67.68,67.68,0,0,0,17.33,2.3,67.7,67.7,0,0,0,53.77-26.83,67.27,67.27,0,0,0,5.68-72c-8.86-16.45-22.48-27.57-40.49-33a65.48,65.48,0,0,0-18.73-2.72,9.43,9.43,0,0,1-8.87-6,9.27,9.27,0,0,1,8.74-12.7h.63a81.85,81.85,0,0,1,18.36,2.11,85.13,85.13,0,0,1,47.09,29,83.18,83.18,0,0,1,18.65,40.94c3.75,24-1.58,45.94-15.86,65.2-12.9,17.39-30.31,28.47-51.73,32.93A85,85,0,0,1,162.63,248.46Z"/></g></g></svg>